<?xml version="1.0" encoding="UTF-8"?>
<svg width="130.6mm" height="81.83mm" version="1.1" viewBox="0 0 130.6 81.83" xmlns="http://www.w3.org/2000/svg" xmlns:cc="http://creativecommons.org/ns#" xmlns:dc="http://purl.org/dc/elements/1.1/" xmlns:rdf="http://www.w3.org/1999/02/22-rdf-syntax-ns#">
 <metadata>
  <rdf:RDF>
   <cc:Work rdf:about="">
    <dc:format>image/svg+xml</dc:format>
    <dc:type rdf:resource="http://purl.org/dc/dcmitype/StillImage"/>
    <dc:title/>
   </cc:Work>
  </rdf:RDF>
 </metadata>
 <g transform="translate(-195.57 -169.69)">
  <path d="m255.56 241.13v-29.758c0-3.8133 3.5279-6.8837 7.9101-6.8837-7.6052 2.7006 61.642-11.051 61.642 36.642 0 3.8133-3.5279 6.8837-7.91 6.8837h-53.732c-4.3822 0-7.9101-3.0704-7.9101-6.8837z" fill="#c48110" fill-rule="evenodd"/>
  <path d="m283.71 221.63c-0.0875 7.1327 3.6767 16.05 11.843 17.824 9.1069 1.9784 29.644 2.4146 29.644 2.4146 0.17591-0.0352 0.56642-9.5259-3.9118-16.871-2.7704-7.1416-8.7056-11.481-10.78-12.696-3.3536-0.95817-6.4449-2.243-9.8078-2.6181-2.807-0.31318-7.1454 0.24212-9.7374 1.598-4.4558 2.3307-7.1977 6.1369-7.2497 10.348z" fill="#eda122" fill-rule="evenodd"/>
  <path d="m319.99 222.01c1.5377 2.3665 2.7836 5.0482 3.661 8.0861m1.0662 5.0851c0.2562 1.869 0.3906 3.8507 0.3906 5.9516 0 3.8133-3.5279 6.8837-7.91 6.8837h-53.732c-4.3822 0-7.9101-3.0704-7.9101-6.8837v-29.758c0-3.8133 3.5279-6.8837 7.9101-6.8837-5.1133 1.8157 24.514-3.8055 44.479 6.8109 2.186 1.1624 4.2562 2.5197 6.1523 4.1026" fill="none" stroke="#584008" stroke-linecap="round" stroke-linejoin="round" stroke-width="2.1333"/>
  <g fill-rule="evenodd">
   <path d="m232.4 181.34h40.302c5.1647 0 9.8122 3.533 9.3224 7.8596l-6.0437 53.39c-0.48971 4.3266-4.1578 7.8594-9.3224 7.8594h-29.348c-5.1646 0-8.9236-3.5237-9.3224-7.8594l-4.9104-53.39c-0.3988-4.3359 4.1579-7.8596 9.3225-7.8596z" fill="#eda122"/>
   <path d="m225.76 223.14c7.1887 8.0895 14.26 13.983 23.526 15.449 9.9729 1.578 16.3-9.1581 28.521-9.4312l1.4838-15.32-54.048 3.4545z" fill="#c48110"/>
   <path d="m275.92 238.97c0.29856 11.174-42.585 11.869-10.34 11.42 3.7317-0.99704 9.1028-1.437 10.061-5.7491 1.681-7.2112 1.2591-4.3865 0.27895-5.6712z" fill="#c48110"/>
  </g>
  <path d="m232.4 181.34h40.302c5.1647 0 9.8122 3.533 9.3224 7.8596l-6.0437 53.39c-0.48971 4.3266-4.1578 7.8594-9.3224 7.8594h-29.348c-5.1646 0-8.9236-3.5237-9.3224-7.8594l-4.9104-53.39c-0.3988-4.3359 4.1579-7.8596 9.3225-7.8596z" fill="none" stroke="#584008" stroke-linecap="round" stroke-linejoin="round" stroke-width="2.1333"/>
  <path d="m249.64 170.76c-15.525 0-29.099 4.4153-36.494 11.003-4.1795 2.8145-11.494 5.9608-15.534 9.6463-5.1578 4.9236 11.877 7.9105 12.084 6.9172 8.0607 14.766 24.348 30.595 39.945 30.832 12.734-1.3052 36.403-17.361 41.462-31.316 3.7675-0.65312 12.472-0.72511 10.379-6.4338-1.8984-1.8983-15.239-9.6287-15.49-9.7742-7.4265-6.5169-20.928-10.875-36.352-10.875z" fill="#eda122" fill-rule="evenodd"/>
  <path d="m249.64 170.75c-23.431 0-42.426 10.056-42.426 22.461 6.7178 15.96 25.006 35.673 42.426 35.938 14.172-1.4526 41.892-21.176 42.426-35.938 0-12.405-18.995-22.461-42.426-22.461z" fill="none"/>
  <path d="m219.4 211.89c-3.6382-4.0827 16.073 11.348 27.039 11.865 8.7983 0.41504 17.827-5.675 25.419-11.122 5.3133-3.8124 17.574-14.12 16.881-9.8035-0.89727 5.5897-27.339 25.588-39.534 25.5-10.412 0.58956-25.917-12.076-29.805-16.44z" fill="#c48110" fill-rule="evenodd"/>
  <path d="m208.91 190.81c-2.0012 0.37727-6.9768 1.8922-6.1116 2.7913 0.8481 0.55285 6.5408 3.0768 6.535 1.4024 0-1.4616 0.46036-4.3603-0.42347-4.1937z" fill="#584008" fill-rule="evenodd"/>
  <g fill="none">
   <path d="m245.12 175.59c0.50568-0.13642 5.1514-0.56938 11.421 0m5.0473 0.60971c5.6899 0.87264 11.541 2.4496 15.165 5.1469" stroke="#fff" stroke-linecap="round" stroke-linejoin="round" stroke-opacity=".4" stroke-width="3.2"/>
   <path d="m300.4 213.67c2.8129 1.0718 7.381 3.1548 10.587 6.3269m2.8586 3.3973c1.1232 0.89442 3.2674 5.0104 3.2674 5.0104" stroke="#fff" stroke-linecap="round" stroke-linejoin="round" stroke-opacity=".4" stroke-width="3.2"/>
   <path d="m249.64 170.76c-15.525 0-29.099 4.4153-36.494 11.003l0.0363-0.17526s-13.654 7.9053-15.571 9.8215c-2.755 7.516 8.1336 5.0488 11.978 7.4254l0.10558-0.50817c8.0607 14.766 24.348 30.595 39.945 30.832 12.734-1.3052 36.403-17.361 41.462-31.316 3.7675-0.65312 12.472-0.72511 10.379-6.4338-1.8984-1.8983-15.239-9.6287-15.49-9.7742-7.4265-6.5169-20.928-10.875-36.352-10.875z"/>
  </g>
  <path d="m213.7 182.23c0.0426 1.4682-1.395 2.9178-2.5678 3.971-3.8227 3.4332-13.183 7.0946-13.766 6.9358-0.5824-0.15884 2.8062-3.6532 3.8651-4.2356 1.0589-0.58239 6.6848-4.3627 10.271-6.0886 0.31457-0.15138 0.31871-0.25611 0.97954-0.37089z" fill="#fff" fill-opacity=".4" fill-rule="evenodd"/>
  <path d="m285.15 181.74c-0.0427 1.4682 1.2538 3.3028 2.515 4.4473 3.5747 3.2444 12.654 6.0356 13.236 5.8768 0.5824-0.15881-2.2767-2.5942-3.3356-3.1766-1.0589-0.58239-6.5208-4.7565-10.271-6.0886-0.22699-0.0811-0.15638 0.26529-0.71478-0.10668z" fill="#c48110" fill-rule="evenodd"/>
  <path d="m249.64 170.76c-15.525 0-29.099 4.4153-36.494 11.003-4.1795 2.8145-11.494 5.9608-15.534 9.6463-5.1578 4.9236 11.877 7.9105 12.084 6.9172 8.0607 14.766 24.348 30.595 39.945 30.832 12.734-1.3052 36.403-17.361 41.462-31.316 3.7675-0.65312 12.472-0.72511 10.379-6.4338-1.8984-1.8983-15.239-9.6287-15.49-9.7742-7.4265-6.5169-20.928-10.875-36.352-10.875z" fill="none" stroke="#584008" stroke-linecap="round" stroke-linejoin="round" stroke-width="2.1333"/>
  <path d="m290.47 190.18c2.0012 0.37728 6.9767 1.8922 6.1116 2.7913-0.84811 0.55285-6.5408 3.0768-6.535 1.4024 0-1.4615-0.4604-4.3603 0.42347-4.1937z" fill="#584008" fill-rule="evenodd"/>
 </g>
</svg>
