<?xml version="1.0" encoding="UTF-8"?>
<svg width="49.776mm" height="30.625mm" version="1.1" viewBox="0 0 49.776 30.625" xmlns="http://www.w3.org/2000/svg" xmlns:cc="http://creativecommons.org/ns#" xmlns:dc="http://purl.org/dc/elements/1.1/" xmlns:rdf="http://www.w3.org/1999/02/22-rdf-syntax-ns#">
 <metadata>
  <rdf:RDF>
   <cc:Work rdf:about="">
    <dc:format>image/svg+xml</dc:format>
    <dc:type rdf:resource="http://purl.org/dc/dcmitype/StillImage"/>
    <dc:title/>
   </cc:Work>
  </rdf:RDF>
 </metadata>
 <g transform="translate(-282.73 -308.93)">
  <g fill-rule="evenodd">
   <path d="m331.2 329.93c0-0.0416 0.89846 8.1234-8.3861 9.584-9.2846-0.29941-10.183-9.4342-10.183-9.4342z" fill="#727272" opacity=".347"/>
   <path d="m332.51 324.89a10.307 13.037 0 0 1-10.308 13.037 10.307 13.037 0 0 1-10.307-13.037 10.307 13.037 0 0 1 10.307-13.037 10.307 13.037 0 0 1 10.308 13.037z" fill="#fff"/>
   <path d="m284 329.97c0-0.0161-0.89845 8.0387 8.386 9.584 9.2846-0.29941 10.033-9.7338 10.033-9.7338z" fill="#727272" opacity=".347"/>
   <path d="m303.34 324.89a10.307 13.037 0 0 1-10.308 13.037 10.307 13.037 0 0 1-10.307-13.037 10.307 13.037 0 0 1 10.307-13.037 10.307 13.037 0 0 1 10.308 13.037z" fill="#fff"/>
   <ellipse cx="296.38" cy="325.68" rx="5.9668" ry="5.9668" fill="#082f58"/>
   <ellipse cx="318.48" cy="325.68" rx="5.9668" ry="5.9668" fill="#082f58"/>
   <circle cx="320.36" cy="323.44" r="1.8371" fill="#fff"/>
   <circle cx="297.75" cy="323.64" r="1.8371" fill="#fff"/>
  </g>
  <path d="m292.23 310s4.8993 0.88666 8.0076 5.2066" fill="none" stroke="#082f58" stroke-linecap="round" stroke-linejoin="round" stroke-width="2.1333"/>
  <path d="m322.87 310s-4.8993 0.88666-8.0076 5.2066" fill="#082f58" fill-rule="evenodd" stroke="#082f58" stroke-linecap="round" stroke-linejoin="round" stroke-width="2.1333"/>
 </g>
</svg>
