<?xml version="1.0" encoding="UTF-8"?>
<svg width="49.776mm" height="27.704mm" version="1.1" viewBox="0 0 49.776 27.704" xmlns="http://www.w3.org/2000/svg" xmlns:cc="http://creativecommons.org/ns#" xmlns:dc="http://purl.org/dc/elements/1.1/" xmlns:rdf="http://www.w3.org/1999/02/22-rdf-syntax-ns#">
 <metadata>
  <rdf:RDF>
   <cc:Work rdf:about="">
    <dc:format>image/svg+xml</dc:format>
    <dc:type rdf:resource="http://purl.org/dc/dcmitype/StillImage"/>
    <dc:title/>
   </cc:Work>
  </rdf:RDF>
 </metadata>
 <g transform="translate(-300.75 -414.02)">
  <g fill-rule="evenodd">
   <path d="m349.21 432.1c0-0.0416 0.89846 8.1234-8.3861 9.584-9.2846-0.29941-10.183-9.4342-10.183-9.4342z" fill="#727272" opacity=".347"/>
   <path d="m350.52 427.06a10.307 13.037 0 0 1-10.308 13.037 10.307 13.037 0 0 1-10.307-13.037 10.307 13.037 0 0 1 10.307-13.037 10.307 13.037 0 0 1 10.308 13.037z" fill="#fff"/>
   <path d="m302.02 432.14c0-0.0161-0.89845 8.0387 8.386 9.584 9.2846-0.29941 10.033-9.7338 10.033-9.7338z" fill="#727272" opacity=".347"/>
   <path d="m321.36 427.06a10.307 13.037 0 0 1-10.308 13.037 10.307 13.037 0 0 1-10.307-13.037 10.307 13.037 0 0 1 10.307-13.037 10.307 13.037 0 0 1 10.308 13.037z" fill="#fff"/>
   <ellipse cx="314.4" cy="427.85" rx="5.9668" ry="5.9668" fill="#082f58"/>
   <ellipse cx="336.5" cy="427.85" rx="5.9668" ry="5.9668" fill="#082f58"/>
  </g>
  <path d="m315.03 426.94c-0.28561 0.54957 0.88883 0.52891 0.2557-4e-3 -0.42111-0.60703-1.069 7e-3 -1.0938 0.45661-0.67614 0.59275 0.33641 0.24994 0.67824 0.18107 0.65588 0.19364-0.05-0.59613-0.0396-0.95255-0.76377-0.5489 0.0495 1.209-0.72452 1.0876-0.067-0.11168 0.5509-0.48754 0.4311-0.71227-0.0761 0.4988-0.0715 1.1489 0.48339 1.0472 0.0882-0.46056 0.0102-0.65958-0.60266-0.47721-0.50027-0.36477 5e-3 -0.8167 0.42525-0.52519 1.1079-0.12392-0.62509-0.0368-0.72031 0" fill="none" stroke="#fff" stroke-width=".28222px"/>
  <path d="m335.99 427.54c7e-3 -0.34781-0.36483-0.63415-0.49708-0.86775-0.21901 0.15861-0.0847 0.52601-0.3284 0.672-0.11128 0.0688-0.27911 0.17354-0.042 0.0971 0.45051-0.10141 0.66737-0.54805 0.93427-0.87622 0.0953 0.0489-0.38239 0.45867-0.1727 0.17526 0.20069-0.10363 3e-3 -0.47131-0.10041-0.16849-0.17407 0.31307-0.41351 0.70536-0.81664 0.70697-0.17054 0.0141-0.44862-0.30265-0.36392-0.3263 0.28352 0.39753 1.1688 0.6655 1.3965 1.0957 0.0985-0.27257-0.46604-0.43398-0.41755-0.72989-0.0212-0.3042 0.0987-0.60675 0.32823-0.81212 0.30237-0.0412-0.081 0.37753-0.24331 0.40874-0.2965 0.20408-0.75215 0.19629-0.95033 0.52423-0.0957 0.25208 0.2741 0.40696 0.5664 0.53532 0.27626-0.0192-0.13722-0.0442-0.0308-0.2367 0.12702-0.29323 0.65551-0.35941 0.99378-0.43592 0.27904-0.10256-0.23215-0.13146-0.53983-0.23726-0.26264-0.11637-0.14515-0.30418-0.38656-0.51749 0.20882-0.17272 0.13747-0.51977-0.15655-0.54491-0.16933-0.0329 0.44408 0.97965 0.43112 1.1419 0.19036 0.29198-0.61216-0.47747-0.21231-0.50306 0.069-3e-3 0.13764-0.011 0.2067-0.011" fill="none" stroke="#fff" stroke-width=".28222px"/>
 </g>
</svg>
