<?xml version="1.0" encoding="UTF-8"?>
<svg width="69.928mm" height="77.155mm" version="1.1" viewBox="0 0 69.928 77.155" xmlns="http://www.w3.org/2000/svg" xmlns:cc="http://creativecommons.org/ns#" xmlns:dc="http://purl.org/dc/elements/1.1/" xmlns:rdf="http://www.w3.org/1999/02/22-rdf-syntax-ns#">
 <metadata>
  <rdf:RDF>
   <cc:Work rdf:about="">
    <dc:format>image/svg+xml</dc:format>
    <dc:type rdf:resource="http://purl.org/dc/dcmitype/StillImage"/>
    <dc:title/>
   </cc:Work>
  </rdf:RDF>
 </metadata>
 <g transform="translate(-138.73 -211.05)" fill="#523f39" fill-rule="evenodd" stroke="#000" stroke-width=".28222px">
  <path d="m173.63 235.7c-7.6983 0.23303-15.083 0.10914-15.083 0.10914-5.0174 0.29515-14.947 5.7526-15.301 13.99-0.29726 6.906 5.2465 15.738 5.2465 15.738-0.87436-2.8416 0.87423-8.9622 0.87423-8.9622 0.41334 8.887 7.7767 23.082 8.5874 24.621-0.91457-2.1894-0.71824-10.85-0.71824-10.85 1.3115 12.241 15.301 17.706 15.301 17.706 0.40041-0.19448 0.71706-1.3728 1.0931-1.5668 0.376 0.194 0.69265 1.3724 1.0931 1.5668 0 0 13.99-5.4652 15.301-17.706 0 0 0.19634 8.6602-0.71823 10.85 0.81068-1.5389 8.174-15.734 8.5874-24.621 0 0 1.7486 6.1206 0.87423 8.9622 0 0 5.5437-8.8323 5.2465-15.738-0.35456-8.2372-10.284-13.695-15.301-13.99 0 0-7.3846 0.12389-15.083-0.10914zm15.676 45.496c-0.0467 0.0887-0.15599 0.29876-0.15599 0.29876 0.0555-0.0778 0.10701-0.18151 0.15599-0.29876zm-31.352 0c0.049 0.11725 0.10044 0.22098 0.15599 0.29876 0 0-0.10926-0.21005-0.15599-0.29876z"/>
  <path d="m174.05 212.58s-14.902-3.577-22.989 1.232c-8.0878 4.809-10.455 11.228-11.985 11.883-1.5301 0.65577 6.1205 3.0602 12.022 0.65577 5.9019-2.4045 10.055-4.1532 10.055-4.1532s-1.3115 4.1532-2.8417 4.8089c-1.5301 0.65576 5.7534-2.9926 8.7216-4.2922 2.3888-1.046 7.2994-2.8151 7.2994-2.8151s1.1822-0.023 8.3548 3.1618c6.7232 2.9852 8.9402 3.4709 8.9402 3.4709l-3.3694-6.083s7.6506 3.9346 11.367 3.9346c3.716 0 8.7436-1.0929 8.7436-1.0929s-10.859-9.8019-17.668-11.638c-5.3669-1.4474-16.65 0.92739-16.65 0.92739z"/>
 </g>
</svg>
