<?xml version="1.0" encoding="UTF-8"?>
<svg width="99.593mm" height="71.777mm" version="1.1" viewBox="0 0 99.593 71.777" xmlns="http://www.w3.org/2000/svg" xmlns:cc="http://creativecommons.org/ns#" xmlns:dc="http://purl.org/dc/elements/1.1/" xmlns:rdf="http://www.w3.org/1999/02/22-rdf-syntax-ns#">
 <metadata>
  <rdf:RDF>
   <cc:Work rdf:about="">
    <dc:format>image/svg+xml</dc:format>
    <dc:type rdf:resource="http://purl.org/dc/dcmitype/StillImage"/>
    <dc:title/>
   </cc:Work>
  </rdf:RDF>
 </metadata>
 <g transform="translate(-307.98 -429.77)">
  <g transform="matrix(.28222 0 0 .28222 758.93 590.29)" stroke="#000" stroke-width="1px">
   <path d="m-1381.8-501.34s-30.981 26.334-77.453 40.275c-46.472 13.942-80.551 44.923-82.1 60.413-1.549 15.491 35.628 43.373 35.628 43.373-2.6032 40.83-4.6316 46.372-46.472 40.275-58.864-9.2943-43.373-38.726-43.373-38.726s23.326 26.785 26.334 4.6472c2.9529-21.735-12.734-119.91-3.098-137.87 9.5208-17.745 53.403-59.721 89.845-71.256 42.899-13.579 85.198-9.2942 134.77 7.7454 49.57 17.04 63.801 75.924 75.904 122.37 5.7341 22.008-24.785 60.413-3.0981 68.158 21.687 7.7452 29.432 0 29.432 0-18.709 46.352-26.667 39.849-79.002 40.275l4.6471-49.57c0.3837 4.2206 45.128-93.784-61.962-130.12z" fill="#3f3c05" fill-rule="evenodd"/>
   <g fill="none" stroke-linecap="round">
    <path d="m-1423.6-521.47c-33.58 22.601-67.31 45.828-105.34 60.413"/>
    <path d="m-1470-535.42c-35.268 13.231-74.272 29.312-89.088 67.152l-2.3057 4.1038"/>
    <path d="m-1539.8-396c-1.5491 13.425-3.0981 26.85-4.6472 40.275"/>
    <path d="m-1521.2-369.67c-3.6145 9.8106-7.2289 19.621-10.843 29.432"/>
    <path d="m-1352.3-527.67c18.604 11.718 38.317 25.898 44.922 48.021"/>
    <path d="m-1312-378.96c1.5632 12.772 3.889 30.008 18.589 34.079"/>
   </g>
  </g>
 </g>
</svg>
