<?xml version="1.0" encoding="UTF-8"?>
<svg width="54.203mm" height="44.921mm" version="1.1" viewBox="0 0 54.203 44.921" xmlns="http://www.w3.org/2000/svg" xmlns:cc="http://creativecommons.org/ns#" xmlns:dc="http://purl.org/dc/elements/1.1/" xmlns:rdf="http://www.w3.org/1999/02/22-rdf-syntax-ns#">
 <metadata>
  <rdf:RDF>
   <cc:Work rdf:about="">
    <dc:format>image/svg+xml</dc:format>
    <dc:type rdf:resource="http://purl.org/dc/dcmitype/StillImage"/>
    <dc:title/>
   </cc:Work>
  </rdf:RDF>
 </metadata>
 <g transform="translate(-262.46 -325.11)" fill-rule="evenodd" stroke="#000">
  <path d="m289.47 332.1c-5.5552 0.16816-10.884 0.0788-10.884 0.0788-3.6206 0.21298-10.786 4.1512-11.042 10.095-0.21449 4.9834 3.7859 11.357 3.7859 11.357-0.63094-2.0506 0.63085-6.4672 0.63085-6.4672 0.29828 6.413 5.6118 16.656 6.1968 17.766-0.65996-1.5799-0.51829-7.8292-0.51829-7.8292 0.94642 8.8332 11.042 12.777 11.042 12.777 0.28894-0.14035 0.51744-0.99066 0.78876-1.1306 0.27133 0.13999 0.49982 0.9903 0.78877 1.1306 0 0 10.095-3.9438 11.042-12.777 0 0 0.14168 6.2493-0.51829 7.8292 0.585-1.1105 5.8985-11.354 6.1968-17.766 0 0 1.2618 4.4167 0.63085 6.4672 0 0 4.0004-6.3735 3.7859-11.357-0.25585-5.9441-7.4209-9.8822-11.042-10.095 0 0-5.3288 0.0894-10.884-0.0788zm11.312 32.83c-0.0337 0.064-0.11257 0.21558-0.11257 0.21558 0.0401-0.0561 0.0772-0.13098 0.11257-0.21558zm-22.624 0c0.0353 0.0846 0.0725 0.15946 0.11257 0.21558 0 0-0.0789-0.15157-0.11257-0.21558z" fill="#5c8585" stroke-width=".28222"/>
  <path d="m289.83 326.3s-11.551-2.7726-17.82 0.95494c-6.2691 3.7276-8.1038 8.7028-9.2898 9.2111-1.186 0.50831 4.7442 2.3721 9.3189 0.50831 4.5747-1.8638 7.794-3.2193 7.794-3.2193s-1.0166 3.2193-2.2027 3.7276c-1.186 0.5083 4.4597-2.3196 6.7604-3.327 1.8517-0.81078 5.658-2.1821 5.658-2.1821s0.91638-0.0178 6.4761 2.4508c5.2114 2.3139 6.9298 2.6904 6.9298 2.6904l-2.6117-4.7151s5.9302 3.0498 8.8106 3.0498c2.8804 0 6.7774-0.84717 6.7774-0.84717s-8.4172-7.5978-13.695-9.0211c-4.1601-1.1219-12.906 0.71885-12.906 0.71885z" fill="#547979" stroke-width=".21876px"/>
 </g>
</svg>
