<?xml version="1.0" encoding="UTF-8"?>
<svg width="115.25mm" height="113.93mm" version="1.1" viewBox="0 0 115.25 113.93" xmlns="http://www.w3.org/2000/svg" xmlns:cc="http://creativecommons.org/ns#" xmlns:dc="http://purl.org/dc/elements/1.1/" xmlns:rdf="http://www.w3.org/1999/02/22-rdf-syntax-ns#">
 <defs>
  <filter id="filter17392" x="-.0092115" y="-.01721" width="1.0184" height="1.0344" color-interpolation-filters="sRGB">
   <feGaussianBlur stdDeviation="0.29112"/>
  </filter>
 </defs>
 <metadata>
  <rdf:RDF>
   <cc:Work rdf:about="">
    <dc:format>image/svg+xml</dc:format>
    <dc:type rdf:resource="http://purl.org/dc/dcmitype/StillImage"/>
    <dc:title/>
   </cc:Work>
  </rdf:RDF>
 </metadata>
 <g transform="translate(-304.8 -444.55)" fill-rule="evenodd" stroke="#000">
  <path d="m364.52 445.13-12.498 18.546-14.514-14.111-4.4351 20.965-19.353-8.0632 10.886 19.352-19.029 3.7361 7.9992 4.7653c0.0147-0.0144 0.0268-0.0286 0.0419-0.043 4.0404-3.6854 11.355-6.8318 15.534-9.6463 3.0921-2.7544 7.2679-5.1265 12.212-6.9574 10.865-5.7082 27.282-7.5172 46.54-1.9337 4.6698 2.0602 8.2379 4.2141 10.948 6.3699 1.1424 0.75955 2.1952 1.5583 3.1469 2.3934 0.14478 0.0839 4.6324 2.6899 8.7781 5.2454l0.91502-0.70392 7.6602-4.0316-14.515-5.2415 5.2415-11.692-21.771 1.6123-0.80643-15.32-15.32 12.498zm48.181 50.74c-2.0006 0.42517-4.1544 0.59202-5.5915 0.84117-0.29326 0.80884-0.65184 1.625-1.0644 2.4446h9.6788zm-90.5 1.2281-6.8676 10.121 16.408-0.79982c-2.3156-3.0208-4.3581-6.1452-6.0391-9.2246-0.0601 0.28926-1.5507 0.23888-3.5013-0.0965z" fill="#b1e8f7" stroke-width=".56444"/>
  <path d="m346.04 486.66c-3.0274 1.211-10.562 6.6971-9.6542 8.5136 0.90824 1.8165 4.8439 0.60548 6.6604-1.211 1.8165-1.8165 3.3302-3.9357 7.2659-3.0274 3.9357 0.90822 10.293 8.4769 15.137 6.6604 4.8439-1.8165 7.5319-5.1099 11.165-5.4127 3.6329-0.30274 10.248 2.8151 9.3914-0.0886-0.87317-2.961-8.2346-4.3394-13.254-3.3486-2.9958 0.59143-5.2421 3.2279-8.1925 3.3821-6.4278 0.33594-12.44-7.5694-18.519-5.4678z" fill="#b1e8f7" stroke-width=".56444"/>
  <g fill="#66ff36">
   <path transform="matrix(.25073 0 0 .25073 720.37 773.82)" d="m-1482.4-886.28c0.62-9.761 23.513 1.4288 36.403 0.77453 10.843 0.77452 27.883-12.392 34.079-5.4217s-7.7452 14.716-16.265 17.04c-8.5197 2.3236-4.6471 1.549-9.2942 5.4217-4.6472 3.8726-16.265 13.167-19.363 6.9707-3.0981-6.1962-1.549-5.4217-7.7452-9.2943s-20.138-6.9707-17.814-15.491z" filter="url(#filter17392)" stroke-width="1.1256"/>
   <path d="m370.09 552.78s-2.02-0.57715-2.4529 0.28857c-0.43287 0.86572-1.8758 0.72145-1.1543 1.5872 0.72145 0.86572 3.7515-0.28857 3.6072-1.8757z" stroke-width=".28222"/>
   <path d="m345.76 554.53s-0.74419-1.66 0.38794-1.85c1.1322-0.18999 2.2669 1.9476 2.2669 1.9476s0.921 2.2511-2.6548-0.0976z" stroke-width=".28222"/>
  </g>
 </g>
</svg>
